<?xml version="1.0" encoding="utf-8"?>
<!-- Generator: Adobe Illustrator 20.0.0, SVG Export Plug-In . SVG Version: 6.00 Build 0)  -->
<svg version="1.1" id="Shape_1_1_" xmlns="http://www.w3.org/2000/svg" xmlns:xlink="http://www.w3.org/1999/xlink" x="0px" y="0px"
	 viewBox="0 0 32 21" style="enable-background:new 0 0 32 21;" xml:space="preserve">
<style type="text/css">
	.st0{fill-rule:evenodd;clip-rule:evenodd;fill:#D1D1D1;}
</style>
<g id="Shape_1">
	<g>
		<path class="st0" d="M26.9,8.7c-0.3-3.2-3-5.6-6.3-5.6c-0.7,0-1.5,0.1-2.2,0.4C16.9,1.3,14.4,0,11.7,0C7.2,0,3.5,3.8,3.5,8.3
			c0,0.3,0,0.6,0,0.9c-2.1,1-3.5,3.2-3.5,5.5C0,18,2.4,20.6,5.7,21h0.1l20.9,0v-0.1c3.1-0.4,5.4-3,5.4-6.1
			C32,11.8,29.9,9.3,26.9,8.7z"/>
	</g>
</g>
</svg>
