<?xml version="1.0" encoding="utf-8"?>
<!-- Generator: Adobe Illustrator 20.0.0, SVG Export Plug-In . SVG Version: 6.00 Build 0)  -->
<svg version="1.1" id="Layer_1" xmlns="http://www.w3.org/2000/svg" xmlns:xlink="http://www.w3.org/1999/xlink" x="0px" y="0px"
	 viewBox="0 0 90 90" style="enable-background:new 0 0 90 90;" xml:space="preserve">
<style type="text/css">
	.st0{fill:#D1D1D1;}
</style>
<path class="st0" d="M45,0C20.2,0,0,20.2,0,45s20.2,45,45,45s45-20.2,45-45S69.8,0,45,0z M45,72c-2.5,0-4.5-2-4.5-4.5s2-4.5,4.5-4.5
	s4.5,2,4.5,4.5S47.5,72,45,72z M51.8,27l-2.3,27c-0.2,2.5-2.4,4.3-4.9,4.1c-2.2-0.2-3.9-2-4.1-4.1l-2.3-27c-0.3-3.7,2.5-7,6.2-7.3
	s7,2.5,7.3,6.2C51.8,26.2,51.8,26.6,51.8,27z"/>
</svg>
