<?xml version="1.0" encoding="utf-8"?>
<!-- Generator: Adobe Illustrator 20.0.0, SVG Export Plug-In . SVG Version: 6.00 Build 0)  -->
<svg version="1.1" id="Rectangle_1_1_" xmlns="http://www.w3.org/2000/svg" xmlns:xlink="http://www.w3.org/1999/xlink" x="0px"
	 y="0px" viewBox="0 0 26 32" style="enable-background:new 0 0 26 32;" xml:space="preserve">
<style type="text/css">
	.st0{fill-rule:evenodd;clip-rule:evenodd;fill:#D1D1D1;}
</style>
<g id="Rectangle_1">
	<g>
		<path class="st0" d="M24,27V2h-3V0H6v2H2v25H0c0,0,0,0.7,0,1c0,1.2,0,4,0,4h26v-5H24z M14,5h3v4h-3V5z M14,11h3v4h-3V11z M17,17v4
			h-3v-4H17z M9,5h3v4H9V5z M9,11h3v4H9V11z M12,17v4H9v-4H12z M5,5h3v4H5V5z M5,11h3v4H5V11z M5,17h3v4H5V17z M5,27v-4h3v4H5z
			 M9,27v-4h3v4H9z M14,27v-4h3v4H14z M21,27h-3v-4h3V27z M21,21h-3v-4h3V21z M21,15h-3v-4h3V15z M21,9h-3V5h3V9z"/>
	</g>
</g>
</svg>
