<?xml version="1.0" encoding="utf-8"?>
<!-- Generator: Adobe Illustrator 20.0.0, SVG Export Plug-In . SVG Version: 6.00 Build 0)  -->
<svg version="1.1" id="Layer_1" xmlns="http://www.w3.org/2000/svg" xmlns:xlink="http://www.w3.org/1999/xlink" x="0px" y="0px"
	 viewBox="0 0 12.5 18" style="enable-background:new 0 0 12.5 18;" xml:space="preserve">
<style type="text/css">
	.st0{fill:none;stroke:#D3D3D3;stroke-width:1.4532;stroke-miterlimit:10;}
	.st1{fill:#D3D3D3;}
</style>
<g>
	<path class="st0" d="M10,4.4c0-0.5-0.1-1-0.3-1.4C9.1,1.7,7.8,0.7,6.3,0.7c-2,0-3.7,1.6-3.7,3.7V8"/>
	<path class="st1" d="M6.3,5.5C2.8,5.5,0,8.3,0,11.7C0,15.2,2.8,18,6.3,18c3.5,0,6.3-2.8,6.3-6.3C12.5,8.3,9.7,5.5,6.3,5.5z
		 M6.8,13.6v1.3h-1v-1.3c-0.8-0.2-1.4-0.9-1.4-1.8c0-1,0.8-1.9,1.9-1.9c1,0,1.9,0.8,1.9,1.9C8.2,12.6,7.6,13.4,6.8,13.6z"/>
</g>
</svg>
